<svg width="148" height="48" viewBox="0 0 148 48" fill="none" xmlns="http://www.w3.org/2000/svg">
<path d="M69.9889 36.5569L62.7969 16.5911H67.8295L73.1 32.4027L78.4986 16.5911H83.2567L73.1366 44.6091H68.3968L71.3249 36.5569H69.9889Z" fill="#121619"/>
<path d="M95.0954 36.9229C93.8998 36.9229 92.6736 36.8375 91.417 36.6667C90.1726 36.4959 89.0135 36.2336 87.9399 35.8798V6.98343H92.7529V18.5859H92.9908C93.5764 17.8783 94.3146 17.3171 95.2052 16.9023C96.108 16.4874 97.1328 16.28 98.2796 16.28C99.6705 16.28 100.952 16.6155 102.123 17.2866C103.294 17.9576 104.227 19.019 104.923 20.4708C105.63 21.9227 105.984 23.8259 105.984 26.1806C105.984 33.3421 102.355 36.9229 95.0954 36.9229ZM95.498 33.2079C97.3524 33.2079 98.7555 32.7016 99.7071 31.689C100.659 30.6642 101.135 28.9622 101.135 26.5832C101.135 24.9361 100.939 23.6551 100.549 22.7401C100.158 21.8251 99.6156 21.1845 98.9202 20.8185C98.2369 20.4525 97.4439 20.2695 96.5411 20.2695C95.8457 20.2695 95.1564 20.3976 94.4732 20.6538C93.8022 20.91 93.2287 21.3065 92.7529 21.8434V32.8602C93.1189 32.9578 93.5398 33.0432 94.0157 33.1164C94.4915 33.1774 94.9856 33.2079 95.498 33.2079Z" fill="#121619"/>
<path d="M120.57 36.9229C117.727 36.9229 115.464 36.0872 113.781 34.4157C112.109 32.7321 111.274 30.1334 111.274 26.6198C111.274 23.0939 112.097 20.4891 113.744 18.8055C115.391 17.1219 117.666 16.28 120.57 16.28C123.462 16.28 125.731 17.1219 127.378 18.8055C129.025 20.4891 129.848 23.0878 129.848 26.6015C129.848 30.1029 129.013 32.7016 127.341 34.3974C125.67 36.0811 123.413 36.9229 120.57 36.9229ZM120.57 33.2262C121.961 33.2262 123.047 32.7565 123.828 31.8171C124.608 30.8655 124.999 29.1391 124.999 26.6381C124.999 24.9422 124.822 23.6124 124.468 22.6486C124.114 21.6726 123.602 20.9832 122.931 20.5806C122.272 20.178 121.485 19.9767 120.57 19.9767C119.643 19.9767 118.85 20.178 118.191 20.5806C117.532 20.9832 117.02 21.6665 116.654 22.6303C116.3 23.5819 116.123 24.8934 116.123 26.5649C116.123 28.2607 116.3 29.5966 116.654 30.5727C117.008 31.5365 117.514 32.2197 118.173 32.6223C118.844 33.0249 119.643 33.2262 120.57 33.2262Z" fill="#121619"/>
<path d="M143.75 36.9229C141.468 36.9229 139.705 36.3495 138.461 35.2027C137.229 34.0558 136.613 32.2319 136.613 29.7308V20.4159H133.191V16.5911H136.613L137.473 9.47228H141.426V16.5911H147.026V20.4159H141.426V28.9805C141.426 30.4568 141.712 31.4816 142.286 32.055C142.859 32.6284 143.762 32.9151 144.994 32.9151C145.604 32.9151 146.342 32.8297 147.209 32.6589V36.5203C146.696 36.6423 146.135 36.7399 145.525 36.8131C144.927 36.8863 144.335 36.9229 143.75 36.9229Z" fill="#121619"/>
<path d="M17.6113 48L17.6113 40.4745C20.3638 37.2067 33.1115 39.159 39.1412 40.5437L39.1412 48L17.6113 48Z" fill="#0F62FE"/>
<path fill-rule="evenodd" clip-rule="evenodd" d="M37.2468 5.5249V7.37711C36.557 7.06751 35.792 6.89503 34.987 6.89503C33.4678 6.89503 32.0926 7.50847 31.0947 8.49916C30.0967 7.50847 28.7216 6.89502 27.2023 6.89503C25.6831 6.89503 24.3079 7.50846 23.31 8.49916C22.312 7.50847 20.9369 6.89503 19.4176 6.89503C16.3663 6.89503 13.8927 9.36861 13.8927 12.4199L13.8927 16.2275C11.6408 13.7366 7.98989 12.9548 4.87797 14.4031L0 16.6733L11.929 35.3813C14.4942 39.4041 18.9353 41.8394 23.7064 41.8394C25.3621 41.8394 26.9568 41.4592 28.3881 40.766C29.8465 41.4596 31.4664 41.8394 33.1472 41.8394L33.5736 41.8394L33.5985 41.8383C41.7803 41.4595 48.2966 34.7072 48.2966 26.4324V5.5249C48.2966 2.47358 45.8231 1.16149e-06 42.7717 0C39.7204 0 37.2468 2.47358 37.2468 5.5249Z" fill="#0F62FE"/>
<path fill-rule="evenodd" clip-rule="evenodd" d="M37.2468 5.5249V7.37711C36.557 7.06751 35.792 6.89503 34.987 6.89503C33.4678 6.89503 32.0926 7.50847 31.0947 8.49916C30.0967 7.50847 28.7216 6.89502 27.2023 6.89503C25.6831 6.89503 24.3079 7.50846 23.31 8.49916C22.312 7.50847 20.9369 6.89503 19.4176 6.89503C16.3663 6.89503 13.8927 9.36861 13.8927 12.4199L13.8927 16.2275C11.6408 13.7366 7.98989 12.9548 4.87797 14.4031L0 16.6733L11.929 35.3813C14.4942 39.4041 18.9353 41.8394 23.7064 41.8394C25.3621 41.8394 26.9568 41.4592 28.3881 40.766C29.8465 41.4596 31.4664 41.8394 33.1472 41.8394L33.5736 41.8394L33.5985 41.8383C41.7803 41.4595 48.2966 34.7072 48.2966 26.4324V5.5249C48.2966 2.47358 45.8231 1.16149e-06 42.7717 0C39.7204 0 37.2468 2.47358 37.2468 5.5249Z" fill="url(#paint0_linear)" fill-opacity="0.8"/>
<path fill-rule="evenodd" clip-rule="evenodd" d="M19.3862 30.3284C16.3392 30.3284 13.8691 27.8584 13.8691 24.8114V12.4317C13.8691 9.38475 16.3392 6.91469 19.3862 6.91469C20.9102 6.91469 22.2899 7.53265 23.2884 8.53167C24.2869 7.53255 25.6666 6.91452 27.1908 6.91452C28.7148 6.91452 30.0946 7.53252 31.0931 8.53159C32.0915 7.53252 33.4713 6.91452 34.9953 6.91452C38.0423 6.91452 40.5124 9.38458 40.5124 12.4316V24.8112C40.5124 27.8582 38.0423 30.3283 34.9953 30.3283C33.4713 30.3283 32.0915 29.7103 31.0931 28.7112C30.0946 29.7103 28.7148 30.3283 27.1908 30.3283C25.6667 30.3283 24.287 29.7103 23.2886 28.7113C22.2901 29.7104 20.9103 30.3284 19.3862 30.3284Z" fill="#0F62FE"/>
<defs>
<linearGradient id="paint0_linear" x1="36.2287" y1="41.3197" x2="36.2287" y2="-0.0913411" gradientUnits="userSpaceOnUse">
<stop stop-color="#0B4ABF"/>
<stop offset="1" stop-color="#0B4ABF" stop-opacity="0.1"/>
</linearGradient>
</defs>
</svg>
