<svg width="148" height="48" viewBox="0 0 148 48" fill="none" xmlns="http://www.w3.org/2000/svg">
<path d="M69.9889 36.5568L62.7969 16.5911H67.8295L73.1 32.4026L78.4986 16.5911H83.2567L73.1366 44.609H68.3968L71.3249 36.5568H69.9889Z" fill="white"/>
<path d="M95.0954 36.9228C93.8997 36.9228 92.6736 36.8374 91.417 36.6666C90.1726 36.4958 89.0135 36.2335 87.9399 35.8797V6.98337H92.7529V18.5858H92.9908C93.5764 17.8782 94.3146 17.317 95.2052 16.9022C96.108 16.4874 97.1328 16.28 98.2796 16.28C99.6705 16.28 100.952 16.6155 102.123 17.2865C103.294 17.9575 104.227 19.0189 104.923 20.4708C105.63 21.9226 105.984 23.8258 105.984 26.1805C105.984 33.3421 102.355 36.9228 95.0954 36.9228ZM95.498 33.2078C97.3524 33.2078 98.7555 32.7015 99.7071 31.6889C100.659 30.6641 101.135 28.9622 101.135 26.5831C101.135 24.9361 100.939 23.655 100.549 22.74C100.158 21.825 99.6156 21.1845 98.9202 20.8185C98.2369 20.4525 97.4439 20.2695 96.5411 20.2695C95.8457 20.2695 95.1564 20.3976 94.4732 20.6538C93.8021 20.91 93.2287 21.3065 92.7529 21.8433V32.8601C93.1189 32.9577 93.5398 33.0431 94.0157 33.1163C94.4915 33.1773 94.9856 33.2078 95.498 33.2078Z" fill="white"/>
<path d="M120.57 36.9228C117.727 36.9228 115.464 36.0871 113.781 34.4157C112.109 32.732 111.274 30.1334 111.274 26.6197C111.274 23.0938 112.097 20.4891 113.744 18.8054C115.391 17.1218 117.666 16.28 120.57 16.28C123.462 16.28 125.731 17.1218 127.378 18.8054C129.025 20.4891 129.848 23.0877 129.848 26.6014C129.848 30.1029 129.013 32.7015 127.341 34.3974C125.67 36.081 123.413 36.9228 120.57 36.9228ZM120.57 33.2262C121.961 33.2262 123.047 32.7564 123.828 31.817C124.608 30.8654 124.999 29.1391 124.999 26.638C124.999 24.9422 124.822 23.6123 124.468 22.6485C124.114 21.6725 123.602 20.9832 122.931 20.5806C122.272 20.178 121.485 19.9767 120.57 19.9767C119.643 19.9767 118.85 20.178 118.191 20.5806C117.532 20.9832 117.02 21.6664 116.654 22.6302C116.3 23.5818 116.123 24.8934 116.123 26.5648C116.123 28.2606 116.3 29.5966 116.654 30.5726C117.008 31.5364 117.514 32.2196 118.173 32.6222C118.844 33.0248 119.643 33.2262 120.57 33.2262Z" fill="white"/>
<path d="M143.75 36.9228C141.468 36.9228 139.705 36.3494 138.461 35.2026C137.229 34.0558 136.613 32.2318 136.613 29.7308V20.4159H133.191V16.5911H136.613L137.473 9.47222H141.426V16.5911H147.026V20.4159H141.426V28.9805C141.426 30.4567 141.712 31.4815 142.286 32.0549C142.859 32.6283 143.762 32.915 144.994 32.915C145.604 32.915 146.342 32.8296 147.209 32.6588V36.5202C146.696 36.6422 146.135 36.7398 145.525 36.813C144.927 36.8862 144.335 36.9228 143.75 36.9228Z" fill="white"/>
<path fill-rule="evenodd" clip-rule="evenodd" d="M17.6322 40.4494C19.4981 41.3506 21.5692 41.8393 23.7065 41.8393C25.3622 41.8393 26.9569 41.4591 28.3882 40.7659C29.8466 41.4595 31.4665 41.8393 33.1474 41.8393L33.5737 41.8393L33.5986 41.8381C35.5559 41.7475 37.4179 41.2922 39.1181 40.5385C39.1257 40.5402 39.1332 40.5419 39.1407 40.5437L39.1407 47.9999L17.6109 47.9999L17.6108 40.4745C17.6179 40.4661 17.625 40.4577 17.6322 40.4494Z" fill="white"/>
<path fill-rule="evenodd" clip-rule="evenodd" d="M37.2468 5.5249V7.37711C36.557 7.0675 35.792 6.89503 34.987 6.89503C33.4678 6.89503 32.0926 7.50846 31.0947 8.49916C30.0967 7.50846 28.7216 6.89502 27.2023 6.89502C25.6831 6.89502 24.3079 7.50846 23.31 8.49916C22.312 7.50846 20.9369 6.89503 19.4176 6.89503C16.3663 6.89503 13.8927 9.36861 13.8927 12.4199L13.8927 16.2275C11.6408 13.7366 7.98989 12.9548 4.87797 14.4031L0 16.6733L11.929 35.3813C14.4942 39.4041 18.9353 41.8394 23.7064 41.8394C25.3621 41.8394 26.9568 41.4592 28.3881 40.766C29.8465 41.4596 31.4664 41.8394 33.1472 41.8394L33.5736 41.8394L33.5985 41.8383C41.7803 41.4595 48.2966 34.7072 48.2966 26.4324V5.5249C48.2966 2.47358 45.8231 1.16149e-06 42.7717 0C39.7204 0 37.2468 2.47358 37.2468 5.5249Z" fill="url(#paint0_linear)" fill-opacity="0.8"/>
<path fill-rule="evenodd" clip-rule="evenodd" d="M19.3862 30.3284C16.3392 30.3284 13.8691 27.8583 13.8691 24.8113V12.4316C13.8691 9.38467 16.3392 6.91461 19.3862 6.91461C20.9102 6.91461 22.29 7.5326 23.2885 8.53166C24.2869 7.5326 25.6667 6.91462 27.1907 6.91462C28.7148 6.91462 30.0946 7.53261 31.093 8.53168C32.0915 7.53261 33.4713 6.91462 34.9953 6.91462C38.0423 6.91462 40.5124 9.38468 40.5124 12.4316V24.8113C40.5124 27.8583 38.0423 30.3284 34.9953 30.3284C33.4713 30.3284 32.0915 29.7104 31.093 28.7113C30.0946 29.7104 28.7148 30.3284 27.1907 30.3284C25.6667 30.3284 24.2869 29.7104 23.2885 28.7113C22.29 29.7104 20.9102 30.3284 19.3862 30.3284Z" fill="white"/>
<defs>
<linearGradient id="paint0_linear" x1="24.1483" y1="0" x2="24.1483" y2="41.8394" gradientUnits="userSpaceOnUse">
<stop stop-color="white"/>
<stop offset="1" stop-color="white" stop-opacity="0.75"/>
</linearGradient>
</defs>
</svg>
